<svg width="22" height="20" viewBox="0 0 22 20" fill="none" xmlns="http://www.w3.org/2000/svg">
<path d="M0.0399227 15.5197C0.106602 15.4131 0.213204 15.4063 0.359729 15.4998C3.69285 17.4331 7.31987 18.3997 11.2395 18.3997C13.8528 18.3997 16.4329 17.913 18.9794 16.9395C19.0461 16.9128 19.1429 16.8729 19.2695 16.8193C19.3961 16.7658 19.4861 16.7259 19.5396 16.6992C19.7397 16.6193 19.8964 16.6592 20.0098 16.8193C20.1232 16.9795 20.0862 17.126 19.8998 17.2593C19.6598 17.4326 19.3532 17.6327 18.9798 17.8595C17.8331 18.5394 16.5531 19.0661 15.14 19.4394C13.7266 19.8127 12.3467 19.9996 11 19.9996C8.92018 19.9996 6.95335 19.6364 5.09991 18.9098C3.24648 18.1831 1.58671 17.16 0.119768 15.84C0.0399227 15.7733 0 15.7066 0 15.6399C0 15.6 0.013166 15.5597 0.0399227 15.5197ZM6.05976 9.81971C6.05976 8.89979 6.28655 8.11323 6.73972 7.4596C7.19288 6.8064 7.81296 6.31288 8.59952 5.97949C9.3194 5.67285 10.2062 5.45285 11.2595 5.31949C11.6196 5.27956 12.2062 5.22605 13.0195 5.15937V4.81918C13.0195 3.96594 12.926 3.39258 12.7396 3.09911C12.4597 2.69903 12.0197 2.49899 11.4196 2.49899H11.2595C10.8195 2.53891 10.4394 2.67907 10.1196 2.91903C9.79975 3.15899 9.59292 3.49239 9.49948 3.91922C9.44597 4.18594 9.31261 4.33926 9.0994 4.37918L6.7996 4.0993C6.57281 4.04578 6.45941 3.92602 6.45941 3.73914C6.45941 3.69922 6.4662 3.6525 6.47937 3.59899C6.70616 2.41235 7.26253 1.53235 8.14933 0.958994C9.03655 0.386486 10.0733 0.0666794 11.2599 0H11.7598C13.2798 0 14.4665 0.393281 15.3197 1.17984C15.4535 1.31363 15.5771 1.4576 15.6896 1.60965C15.803 1.76297 15.8931 1.89973 15.9597 2.01949C16.0264 2.13969 16.0863 2.31297 16.1398 2.53934C16.1933 2.76613 16.2332 2.92285 16.26 3.00949C16.2868 3.09613 16.3067 3.28301 16.3199 3.56968C16.3331 3.85636 16.3399 4.02625 16.3399 4.07976V8.91975C16.3399 9.26631 16.39 9.58315 16.4898 9.86983C16.5896 10.1565 16.6864 10.3633 16.7799 10.4899C16.8733 10.6165 17.0266 10.8199 17.2398 11.0998C17.3197 11.22 17.36 11.3266 17.36 11.4196C17.36 11.5262 17.3065 11.6196 17.1999 11.6995C16.0931 12.6593 15.4934 13.1796 15.4 13.2594C15.2399 13.3796 15.0466 13.3928 14.8198 13.2994C14.6329 13.1392 14.4699 12.9859 14.3297 12.8394C14.1895 12.6929 14.0897 12.5863 14.0299 12.5196C13.97 12.4529 13.8731 12.3229 13.7398 12.1297C13.6064 11.9365 13.513 11.8065 13.4599 11.7398C12.7133 12.5531 11.9798 13.0598 11.2599 13.2599C10.8067 13.3932 10.2465 13.4599 9.57975 13.4599C8.55323 13.4599 7.70975 13.1431 7.04975 12.5098C6.38976 11.8766 6.05976 10.98 6.05976 9.81971ZM9.4999 9.42006C9.4999 9.9399 9.62987 10.3565 9.88979 10.67C10.1497 10.9834 10.4997 11.1401 10.9397 11.1401C10.9796 11.1401 11.0365 11.1333 11.1096 11.1202C11.183 11.107 11.2327 11.1002 11.2595 11.1002C11.8197 10.9537 12.2529 10.5935 12.5595 10.0202C12.706 9.76705 12.816 9.49014 12.8895 9.19029C12.963 8.89045 13.0029 8.64709 13.0097 8.46021C13.0165 8.27377 13.0199 7.9667 13.0199 7.54029V7.04041C12.2465 7.04041 11.66 7.09392 11.2599 7.20053C10.0864 7.53307 9.4999 8.27334 9.4999 9.42006ZM17.8998 15.8599C17.9266 15.8064 17.9665 15.7533 18.02 15.6998C18.3534 15.473 18.6732 15.3197 18.9798 15.2399C19.4865 15.1065 19.98 15.033 20.46 15.0199C20.5933 15.0067 20.7199 15.0131 20.8401 15.0398C21.4402 15.0933 21.7999 15.1931 21.9201 15.3397C21.9736 15.4195 22 15.5397 22 15.6998V15.84C22 16.3067 21.8734 16.8567 21.6198 17.49C21.3667 18.1232 21.0134 18.6333 20.5598 19.0198C20.4931 19.0733 20.4332 19.0996 20.3797 19.0996C20.3529 19.0996 20.3262 19.0928 20.2998 19.0797C20.22 19.0397 20.2 18.9663 20.24 18.8597C20.7335 17.6998 20.9798 16.8928 20.9798 16.4397C20.9798 16.2931 20.953 16.1865 20.9 16.1199C20.7666 15.9597 20.3933 15.8799 19.78 15.8799C19.5532 15.8799 19.2865 15.8931 18.9798 15.9198C18.6465 15.9597 18.3398 15.9997 18.0599 16.04C17.9801 16.04 17.9266 16.0268 17.8998 16.0001C17.8731 15.9733 17.8667 15.9466 17.8798 15.9202C17.8798 15.9066 17.8866 15.8867 17.8998 15.8599Z" fill="white"/>
</svg>
