<svg width="160" height="28" viewBox="0 0 160 28" fill="none" xmlns="http://www.w3.org/2000/svg">
<g clip-path="url(#clip0_70_261)">
<path d="M52.7387 22.1508C47.7992 25.7863 40.6434 27.7165 34.4643 27.7165C25.8248 27.7165 18.0304 24.5307 12.1518 19.2273C11.6823 18.815 12.0955 18.2341 12.6589 18.5714C19.0071 22.2632 26.8766 24.4745 34.9902 24.4745C40.4556 24.4745 46.4845 23.3501 52.025 21.0076C52.8514 20.6328 53.5651 21.5323 52.7387 22.1508Z" fill="#FF9900"/>
<path d="M54.8046 19.7895C54.1849 18.9837 50.6351 19.4147 49.0387 19.6021C48.5504 19.6583 48.4753 19.246 48.9072 18.9462C51.7245 16.9598 56.3635 17.5407 56.9082 18.1966C57.4528 18.8712 56.7767 23.5 54.1097 25.7114C53.6965 26.0487 53.3209 25.8613 53.4899 25.4115C54.0909 23.9311 55.4244 20.6141 54.8046 19.7895Z" fill="#FF9900"/>
<path d="M49.1326 4.94737V3.01715C49.1326 2.71731 49.358 2.52991 49.6209 2.52991H58.2604C58.5421 2.52991 58.7675 2.73605 58.7675 3.01715V4.66627C58.7675 4.94737 58.5234 5.30343 58.1102 5.88438L53.6214 12.2747C55.2929 12.2373 57.0396 12.4809 58.5609 13.3242C58.899 13.5116 58.9929 13.7927 59.0117 14.0738V16.1352C59.0117 16.4163 58.6924 16.7536 58.3731 16.5662C55.7061 15.1794 52.1752 15.0295 49.2453 16.5849C48.9448 16.7536 48.6255 16.4163 48.6255 16.1352V14.1862C48.6255 13.8676 48.6255 13.3429 48.9448 12.8557L54.166 5.43462H49.6397C49.358 5.43462 49.1326 5.22847 49.1326 4.94737Z" fill="#221F1F"/>
<path d="M17.5985 16.9597H14.9691C14.7249 16.941 14.5183 16.7536 14.4995 16.51V3.0546C14.4995 2.79224 14.7249 2.56736 15.0066 2.56736H17.467C17.7299 2.5861 17.9178 2.7735 17.9365 3.01712V4.77868H17.9929C18.6315 3.07334 19.8335 2.28625 21.4487 2.28625C23.1015 2.28625 24.1157 3.07334 24.8669 4.77868C25.5055 3.07334 26.9517 2.28625 28.4918 2.28625C29.5999 2.28625 30.8019 2.73602 31.5344 3.76672C32.3608 4.89112 32.1917 6.54025 32.1917 7.98323V16.4912C32.1917 16.7536 31.9664 16.9785 31.6846 16.9785H29.0552C28.7923 16.9597 28.5857 16.7536 28.5857 16.4912V9.33251C28.5857 8.77031 28.642 7.34607 28.5106 6.80261C28.3227 5.90308 27.7217 5.64072 26.9705 5.64072C26.3319 5.64072 25.6745 6.07174 25.3928 6.74639C25.1299 7.42103 25.1487 8.56417 25.1487 9.33251V16.4725C25.1487 16.7348 24.9233 16.9597 24.6416 16.9597H22.0121C21.7492 16.941 21.5426 16.7348 21.5426 16.4725V9.33251C21.5426 7.83331 21.7868 5.62198 19.9274 5.62198C18.0304 5.62198 18.1056 7.77709 18.1056 9.33251V16.4725C18.1056 16.7536 17.8802 16.9597 17.5985 16.9597Z" fill="#221F1F"/>
<path d="M66.2238 2.28625C70.1304 2.28625 72.2339 5.64072 72.2339 9.87598C72.2339 13.98 69.905 17.2408 66.2238 17.2408C62.3924 17.2408 60.3076 13.8863 60.3076 9.72606C60.3076 5.54702 62.4112 2.28625 66.2238 2.28625ZM66.2426 5.0223C64.3081 5.0223 64.1766 7.66465 64.1766 9.29503C64.1766 10.9442 64.1578 14.4486 66.2238 14.4486C68.271 14.4486 68.3649 11.6188 68.3649 9.87598C68.3649 8.73283 68.3086 7.38355 67.9705 6.29663C67.67 5.3971 67.0878 5.0223 66.2426 5.0223Z" fill="#221F1F"/>
<path d="M77.305 16.9597H74.6756C74.4127 16.941 74.2061 16.7348 74.2061 16.4725V2.99838C74.2248 2.75476 74.4502 2.56736 74.7132 2.56736H77.1548C77.3801 2.5861 77.5679 2.73602 77.6243 2.94216V5.00356H77.6806C78.4131 3.16704 79.4461 2.28625 81.2679 2.28625C82.4512 2.28625 83.5968 2.71728 84.3481 3.87916C85.043 4.96608 85.043 6.76513 85.043 8.07693V16.5662C85.0054 16.8098 84.7989 16.9972 84.5359 16.9972H81.9065C81.6623 16.9785 81.4745 16.8098 81.437 16.5662V9.22007C81.437 7.73961 81.606 5.5845 79.7842 5.5845C79.1456 5.5845 78.5634 6.01552 78.2629 6.67143C77.8872 7.49599 77.8497 8.32055 77.8497 9.22007V16.4725C77.8121 16.7536 77.5867 16.9597 77.305 16.9597Z" fill="#221F1F"/>
<path d="M44.9064 16.941C44.7374 17.0909 44.4745 17.1096 44.2867 16.9972C43.4227 16.2663 43.2537 15.929 42.7841 15.2544C41.3379 16.7161 40.3237 17.1659 38.4456 17.1659C36.2294 17.1659 34.5015 15.7978 34.5015 13.0805C34.5015 10.9442 35.6471 9.50118 37.2999 8.78906C38.7273 8.17064 40.7182 8.0582 42.2395 7.8708V7.53348C42.2395 6.91506 42.2958 6.16546 41.9202 5.64074C41.6009 5.15349 40.9811 4.96609 40.4364 4.96609C39.441 4.96609 38.5395 5.47207 38.3141 6.54026C38.2766 6.78388 38.0887 7.00876 37.8634 7.0275L35.3091 6.7464C35.1025 6.69018 34.8583 6.52152 34.9147 6.20294C35.4969 3.11083 38.2953 2.19257 40.7933 2.19257C42.0704 2.19257 43.742 2.52989 44.7562 3.50437C46.0333 4.70373 45.9206 6.29664 45.9206 8.02072V12.1061C45.9206 13.3429 46.4277 13.8676 46.9161 14.5423C47.0851 14.7859 47.1227 15.067 46.8973 15.2356C46.3902 15.6479 45.4323 16.4725 44.9064 16.941Z" fill="#221F1F"/>
<path d="M42.2396 10.5319C42.2396 11.5626 42.2583 12.4059 41.7512 13.3242C41.3381 14.0551 40.6619 14.5236 39.9294 14.5236C38.9152 14.5236 38.333 13.7552 38.333 12.6308C38.333 10.4007 40.3426 9.98846 42.2396 9.98846V10.5319Z" fill="white"/>
<path d="M10.405 16.941C10.2359 17.0909 9.973 17.1096 9.78519 16.9972C8.92124 16.2663 8.7522 15.929 8.28266 15.2544C6.83648 16.7161 5.8035 17.1471 3.94412 17.1471C1.7279 17.1471 0 15.7791 0 13.0618C0 10.9254 1.16446 9.48245 2.79845 8.77032C4.22585 8.1519 6.21669 8.03946 7.738 7.85206V7.51474C7.738 6.89632 7.79434 6.14672 7.41871 5.622C7.09942 5.13476 6.47963 4.94736 5.93497 4.94736C4.93955 4.94736 4.03803 5.45334 3.81265 6.52152C3.77509 6.76514 3.58728 6.99002 3.3619 7.00876L0.826388 6.72766C0.619791 6.67144 0.375631 6.50278 0.431976 6.1842C1.0142 3.09209 3.81265 2.17383 6.3106 2.17383C7.58774 2.17383 9.2593 2.51115 10.2735 3.48563C11.5507 4.68499 11.438 6.2779 11.438 8.00198V12.0873C11.438 13.3242 11.9451 13.8489 12.4334 14.5235C12.6024 14.7671 12.64 15.0482 12.4334 15.2169C11.8887 15.6479 10.9309 16.4725 10.405 16.941Z" fill="#221F1F"/>
<path d="M7.75666 10.5319C7.75666 11.5626 7.77544 12.4059 7.26834 13.3242C6.85514 14.0551 6.17901 14.5236 5.44653 14.5236C4.43233 14.5236 3.8501 13.7552 3.8501 12.6308C3.8501 10.4007 5.85972 9.98846 7.75666 9.98846V10.5319Z" fill="white"/>
<path d="M96.9129 0C94.584 0 93.0439 0.0374801 92.349 0.11244C92.0485 0.14992 91.8982 0.243621 91.8606 0.393541L91.8231 0.562201C91.1845 3.33573 90.452 5.97808 89.6632 8.48924C89.3815 9.37002 88.9307 10.7193 88.3297 12.4996C87.7475 14.2799 87.2967 15.6105 87.015 16.51C86.9399 16.7349 87.0338 16.866 87.2779 16.866C87.8226 16.866 88.6114 16.8848 89.682 16.9035C90.7525 16.941 91.5414 16.9597 92.086 16.9597C92.2738 16.9597 92.3865 16.866 92.4429 16.6786C92.5556 16.3226 92.687 15.7791 92.8373 15.0483C92.9875 14.3174 93.119 13.7739 93.2317 13.3991C93.3256 13.0993 93.5698 12.9494 93.9454 12.9494C94.3022 12.9494 94.8093 12.9681 95.5043 13.0056C96.1992 13.0431 96.7251 13.0618 97.0819 13.0618C99.1854 13.0618 101.026 12.4247 102.622 11.1503C104.125 9.95097 105.177 8.3768 105.797 6.44658C106.398 4.55383 106.229 3.01715 105.308 1.85526C104.425 0.693382 102.923 0.11244 100.857 0.0562202C99.5986 0.0187401 98.2839 0 96.9129 0ZM122.399 0.318581C121.705 0.318581 121.028 0.505981 120.409 0.862042C119.732 1.25558 119.3 1.7803 119.113 2.39873C118.906 3.05463 119 3.57935 119.413 3.95415C119.789 4.31021 120.333 4.47887 121.085 4.47887C122.813 4.47887 123.883 3.78549 124.334 2.37999C124.522 1.76156 124.428 1.25558 124.015 0.862042C123.62 0.505981 123.094 0.318581 122.399 0.318581ZM98.3966 3.82297C100.387 3.82297 101.101 4.75997 100.5 6.61524C99.9367 8.3768 98.7159 9.23884 96.8002 9.23884C95.2225 9.23884 94.4525 9.16389 94.5088 8.99522C94.584 8.7516 94.6967 8.3768 94.8093 7.9083C94.9408 7.42106 95.0535 7.04626 95.1286 6.80264C95.6733 5.05981 96.0114 4.12281 96.1053 4.02911C96.2367 3.89793 96.988 3.82297 98.3966 3.82297ZM155.474 4.64753C153.464 4.64753 151.661 5.26595 150.065 6.48406C148.506 7.66468 147.454 9.16388 146.853 11.0191C146.252 12.9119 146.44 14.4298 147.398 15.5542C148.337 16.6599 149.839 17.2221 151.924 17.2221C154.178 17.2221 156.018 16.6974 157.427 15.6479C157.596 15.5168 157.69 15.4231 157.709 15.3668C157.765 15.1607 157.709 14.6922 157.502 13.9613C157.314 13.2305 157.127 12.8182 156.976 12.7432L155.793 13.3242C154.873 13.7177 154.028 13.9051 153.258 13.9051C152.6 13.9051 152.056 13.7927 151.624 13.5678C151.079 13.2867 150.835 12.8932 150.872 12.3684C152.976 12.2185 154.553 12.1061 155.624 11.9936C157.389 11.825 158.329 11.75 158.441 11.7313C159.042 11.6188 159.474 11.1503 159.737 10.3445C160.225 8.78908 160.056 7.45854 159.249 6.33414C158.404 5.20973 157.164 4.64753 155.474 4.64753ZM134.889 4.92863C134.1 4.92863 133.312 5.07855 132.541 5.37839C132.016 5.58454 131.264 5.97808 130.306 6.54028C130.175 6.61524 130.044 6.67146 129.95 6.70894C129.893 6.70894 129.95 6.42784 130.1 5.88438C130.269 5.32217 130.269 5.04107 130.1 5.04107C129.837 5.04107 129.48 5.09729 129.011 5.20973C128.353 5.35965 127.978 5.45335 127.884 5.45335C127.752 5.4721 127.358 5.50957 126.682 5.56579C126.137 5.62202 125.743 5.67824 125.536 5.7532C125.404 5.80942 125.311 5.88438 125.254 6.0343C125.235 6.09052 125.217 6.14674 125.217 6.25918C124.897 7.9083 124.541 9.38877 124.127 10.7006C123.921 11.3377 123.62 12.3122 123.207 13.5865C122.794 14.8609 122.493 15.8166 122.287 16.4538C122.23 16.6599 122.212 16.7723 122.23 16.8098C122.268 16.8473 122.381 16.8848 122.587 16.8848C123.282 16.941 123.902 16.9597 124.447 16.9597C125.292 16.9597 125.93 16.941 126.325 16.9035C126.55 16.8848 126.7 16.8473 126.757 16.8098C126.832 16.7536 126.888 16.6412 126.963 16.435C127.189 15.7229 127.527 14.636 127.978 13.1743C128.428 11.7313 128.766 10.6256 129.011 9.89475C129.123 9.55743 129.461 9.25758 130.044 8.95774C130.569 8.67664 131.039 8.54546 131.433 8.54546C132.391 8.54546 132.692 9.1264 132.316 10.2695C132.222 10.5694 132.091 11.0191 131.903 11.6188C131.734 12.2185 131.602 12.6683 131.508 12.9681C131.396 13.3617 131.189 13.9239 130.926 14.6735C130.663 15.4231 130.476 15.9853 130.344 16.3601C130.231 16.6974 130.306 16.8473 130.551 16.8473H134.551C134.814 16.8473 134.983 16.7161 135.058 16.4538C135.171 16.0602 135.34 15.498 135.565 14.7297C135.791 13.9613 135.96 13.3804 136.072 13.0056C136.598 11.3752 136.918 10.382 137.068 10.0447C137.237 9.65113 137.575 9.31381 138.063 8.99522C138.57 8.67664 139.04 8.50798 139.453 8.50798C140.392 8.50798 140.73 8.97648 140.486 9.93223C140.336 10.5319 140.035 11.5251 139.585 12.9306C139.472 13.3054 139.284 13.8489 139.021 14.5985C138.758 15.3294 138.57 15.8728 138.458 16.2476C138.345 16.5849 138.42 16.7911 138.664 16.8286C138.908 16.8848 139.566 16.9035 140.636 16.9035C141.669 16.9035 142.327 16.8848 142.608 16.8473C142.89 16.8098 143.059 16.6599 143.153 16.3788C143.322 15.8728 143.547 15.1232 143.829 14.1113C144.13 13.0993 144.355 12.331 144.505 11.825C144.637 11.394 144.862 10.7568 145.144 9.91349C145.444 9.05145 145.651 8.41428 145.801 7.98326C146.121 6.95256 145.97 6.16548 145.313 5.62201C144.731 5.13477 143.867 4.89115 142.702 4.89115C141.932 4.89115 141.068 5.07855 140.129 5.4721C139.19 5.86564 138.401 6.35288 137.744 6.93382C137.744 6.27792 137.443 5.7532 136.842 5.37839C136.354 5.09729 135.697 4.92863 134.889 4.92863ZM112.088 5.00359C112.051 5.00359 111.281 5.13477 109.816 5.37839C108.839 5.50957 108.107 5.60328 107.618 5.64076C107.468 5.67824 107.374 5.7532 107.337 5.88438C107.318 5.9406 107.318 5.99682 107.299 6.07178C107.299 7.28988 106.98 8.8453 106.398 10.7193C106.191 11.3565 105.89 12.331 105.477 13.6053C105.064 14.8796 104.764 15.8353 104.557 16.4725C104.482 16.6974 104.595 16.8286 104.857 16.866C105.346 16.9223 106.003 16.941 106.83 16.941C107.693 16.941 108.351 16.9223 108.783 16.8848C109.083 16.866 109.252 16.7536 109.327 16.5662C109.403 16.3413 109.497 16.004 109.59 15.5355C109.703 15.067 109.797 14.7297 109.872 14.4861C109.985 14.1487 110.135 13.624 110.342 12.9306C110.548 12.2185 110.717 11.6938 110.83 11.3565C111.037 10.7193 111.3 10.307 111.619 10.1009C111.957 9.89475 112.483 9.78231 113.215 9.78231C113.366 9.78231 113.61 9.80105 113.91 9.81979C114.229 9.83853 114.474 9.83853 114.643 9.83853C115.018 9.83853 115.262 9.68861 115.356 9.37003C115.413 9.22011 115.488 8.90152 115.619 8.43302C115.732 8.03948 115.826 7.73964 115.901 7.51476C115.976 7.30862 116.108 6.99004 116.314 6.52154C116.502 6.09052 116.634 5.77194 116.709 5.52832C116.765 5.34091 116.558 5.24721 116.07 5.24721C115.281 5.24721 114.399 5.45335 113.422 5.88438C112.539 6.25918 112.107 6.46532 112.126 6.5028C112.032 6.46532 112.032 6.2217 112.145 5.7532C112.257 5.24721 112.239 5.00359 112.088 5.00359ZM118.474 5.41587C118.23 5.41587 118.098 5.49083 118.042 5.6595C118.023 5.69698 118.005 5.79068 117.986 5.90312C117.76 7.2524 117.272 9.07018 116.558 11.3377C116.389 11.8999 116.108 12.7432 115.713 13.8489C115.338 14.9546 115.056 15.7791 114.887 16.3413C114.812 16.5475 114.793 16.6786 114.793 16.6974C114.812 16.7723 114.924 16.8286 115.093 16.8473C115.375 16.9035 116.051 16.9223 117.103 16.9223C118.155 16.9223 118.831 16.9035 119.15 16.8473C119.376 16.8098 119.526 16.7161 119.582 16.5475C119.77 15.9665 120.033 15.1045 120.371 13.9426C120.709 12.7807 120.972 11.8999 121.16 11.319C121.817 9.25759 122.493 7.4398 123.169 5.88438C123.226 5.77194 123.263 5.69698 123.263 5.6595C123.32 5.49083 123.226 5.41587 123.019 5.41587C122.756 5.41587 122.381 5.43461 121.855 5.4721C121.329 5.50957 120.934 5.52832 120.69 5.52832C120.446 5.52832 120.052 5.50957 119.563 5.45335C119.075 5.45335 118.718 5.41587 118.474 5.41587ZM153.971 7.73964C154.516 7.73964 154.91 7.92704 155.173 8.30184C155.436 8.67664 155.493 9.10766 155.342 9.61365C155.323 9.70735 155.154 9.76357 154.854 9.80105C153.427 9.98845 152.394 10.0821 151.736 10.0821C151.492 10.0821 151.398 9.96971 151.473 9.76357C151.642 9.23884 151.962 8.77034 152.412 8.3768C152.901 7.94578 153.427 7.73964 153.971 7.73964Z" fill="#4FA3C3"/>
</g>
<defs>
<clipPath id="clip0_70_261">
<rect width="160" height="27.7165" fill="white"/>
</clipPath>
</defs>
</svg>
