<svg width="68" height="80" viewBox="0 0 68 80" fill="none" xmlns="http://www.w3.org/2000/svg">
<path d="M0.329262 79.6235C0.54887 79.8588 0.878282 80 1.20769 80H66.541C66.8704 80 67.1842 79.8588 67.4194 79.6235C67.6391 79.3882 67.7645 79.0588 67.7489 78.7294L65.0194 25.6471C65.0194 25.6314 65.0194 25.6157 65.0194 25.6C65.0194 25.5529 65.0038 25.5059 65.0038 25.4588V25.4275C65.0038 25.4118 65.0038 25.3961 65.0038 25.3961C64.9881 25.3333 64.9724 25.2706 64.941 25.2235C64.941 25.2078 64.9253 25.2078 64.9253 25.1922L64.894 25.1294C64.894 25.1137 64.8783 25.098 64.8783 25.0824L60.7998 18.2745C60.5802 17.9137 60.1881 17.6941 59.7645 17.6941H57.2547L58.243 13.4431C58.3214 13.1294 58.2587 12.8 58.1018 12.5333C57.9293 12.2667 57.6626 12.0627 57.3489 12L45.0822 9.12941L45.0665 9.03529C43.9214 3.79608 39.2312 0 33.8665 0C30.243 0 26.792 1.75686 24.643 4.6902C24.5959 4.75294 24.5489 4.84706 24.5018 4.94118L24.4704 5.01961L9.09789 6.83922C8.43906 6.91765 7.96848 7.51373 8.04691 8.17255L9.17632 17.6941H8.01554C7.59201 17.6941 7.19985 17.9137 6.98024 18.2745L2.90181 25.0824C2.88612 25.098 2.88612 25.1294 2.87044 25.1451L2.85475 25.1922C2.82338 25.2706 2.79201 25.3333 2.77632 25.3961V25.4275C2.76063 25.4902 2.76063 25.5529 2.74495 25.6157V25.6471L-0.000149471 78.7294C-0.0158357 79.0588 0.109654 79.3882 0.329262 79.6235ZM56.6587 20.1098H59.0587L61.694 24.502H55.6391L56.6587 20.1098ZM55.592 14.0706L53.1449 24.502H45.0195L42.494 13.9922C42.4155 13.6784 42.2273 13.4118 41.9449 13.2392C41.6783 13.0667 41.3489 13.0196 41.0351 13.098L38.5881 13.6941L39.3881 10.2745L55.592 14.0706ZM42.5567 24.502H21.8351L20.8626 20.4392L40.4547 15.7333L42.5567 24.502ZM28.4077 4.25098C29.9763 3.05882 31.9214 2.4 33.8665 2.4C37.5685 2.4 40.9567 4.73726 42.29 8.21961L42.3998 8.50196L38.7763 7.6549C38.4626 7.57647 38.1332 7.63922 37.8665 7.81176C37.5998 7.98431 37.3959 8.25098 37.3332 8.56471L35.9842 14.3373L34.3371 14.7294L33.2077 5.20784C33.1763 4.89412 33.0038 4.59608 32.7528 4.40784C32.5018 4.20392 32.1881 4.12549 31.8587 4.15686L27.9528 4.61176L28.4077 4.25098ZM30.9489 6.68235L31.9685 15.2941L19.1214 18.3843C18.4783 18.5412 18.0704 19.1843 18.2273 19.8431L19.3567 24.5176H12.392L10.5724 9.08235L30.9489 6.68235ZM8.69005 20.1098H9.44299L9.96063 24.502H6.03907L8.69005 20.1098ZM2.47828 77.4275L5.06652 26.9176H62.6665V27.0588L65.2547 77.5843H2.47828V77.4275Z" fill="black"/>
</svg>
