<svg width="80" height="81" viewBox="0 0 80 81" fill="none" xmlns="http://www.w3.org/2000/svg">
<path d="M78.9062 0H42.4062C41.7969 0 41.3125 0.484375 41.3125 1.09375V6.53125C41.3125 6.54688 41.3125 6.5625 41.3125 6.59375C41.3125 6.60938 41.3125 6.625 41.3125 6.64063L44.5312 39.0938H43.25V38.0313C43.25 35.4219 41.4062 33.1719 38.8438 32.6563C38.6562 28.5313 37.2656 24.5469 34.8281 21.1875L32.125 17.4531C31.9219 17.1719 31.5938 17 31.25 17C30.9062 16.9844 30.5781 17.1406 30.375 17.4219L27.125 21.6719C25.0156 24.4063 21.7656 26.0156 18.3125 26.0156C14.5 26.0156 11.2656 28.8438 10.7656 32.6406C8.1875 33.125 6.3125 35.3906 6.3125 38.0156V39.0781H4.84375C4.23438 39.0781 3.75 39.5625 3.75 40.1719V47.375H1.09375C0.484375 47.375 0 47.8594 0 48.4688V60.7969C0.015625 67.6094 2.29688 74.2344 6.48438 79.6094C6.6875 79.875 7.01562 80.0313 7.34375 80.0313H42.1875C42.5312 80.0313 42.8438 79.875 43.0469 79.6094C44.7031 77.4688 46.0781 75.125 47.125 72.625V76.4063C47.125 78.3906 48.7344 80 50.7188 80H70.4688C72.4531 80 74.0625 78.3906 74.0625 76.4063V65.7656C74.125 65.6563 74.1562 65.5313 74.1719 65.4063L80 6.64063V6.59375C80 6.57813 80 6.5625 80 6.53125V1.09375C80 0.484375 79.5156 0 78.9062 0ZM8.46875 38.0313C8.46875 36.2188 9.95312 34.75 11.7656 34.75H21.0312C21.6406 34.75 22.125 34.2656 22.125 33.6563C22.125 33.0469 21.6406 32.5625 21.0312 32.5625H12.9688C13.4844 30.0469 15.7031 28.2344 18.2812 28.2188C22.4062 28.2031 26.3125 26.2813 28.8281 23.0156L31.1875 19.9375L33.0312 22.4844C35.1719 25.4219 36.4219 28.9219 36.6094 32.5625H34.5C33.8906 32.5625 33.4062 33.0469 33.4062 33.6563C33.4062 34.2656 33.8906 34.75 34.5 34.75H37.5312C37.5625 34.75 37.6094 34.75 37.6406 34.7344C37.6719 34.7344 37.7031 34.75 37.7344 34.75H37.75C39.5625 34.75 41.0312 36.2188 41.0312 38.0313V39.0938H8.46875V38.0313ZM5.90625 45.4219H19.2188C19.8281 45.4219 20.3125 44.9375 20.3125 44.3281C20.3125 43.7188 19.8281 43.2344 19.2188 43.2344H5.90625V41.2813H43.6094V43.2344H30.3125C29.7031 43.2344 29.2188 43.7188 29.2188 44.3281C29.2188 44.9375 29.7031 45.4219 30.3125 45.4219H43.625V47.3906H5.90625V45.4219ZM47.3438 60.8125C47.3438 61.375 47.3125 61.9688 47.2812 62.5469C47.2812 62.625 47.2812 62.7188 47.2656 62.7969C47.2188 63.3594 47.1719 63.9375 47.0938 64.5C46.4531 69.3438 44.5781 73.9531 41.6406 77.875H7.875C4.1875 72.9375 2.20312 66.9531 2.1875 60.8125V49.5781H47.3438V60.8125ZM71.8906 76.4063C71.8906 77.1875 71.2656 77.8125 70.4844 77.8125H50.7188C49.9375 77.8125 49.3125 77.1875 49.3125 76.4063V70.6875H71.875V76.4063H71.8906ZM71.8906 68.5H49.3125V66.3906H71.875V68.5H71.8906ZM72.0938 64.2031H49.3438C49.3438 64.125 49.3594 64.0625 49.3594 63.9844C49.4062 63.5625 49.4375 63.1406 49.4688 62.7344C49.4688 62.6094 49.4844 62.4844 49.5 62.3594C49.5312 61.8438 49.5469 61.3281 49.5469 60.8125V48.4844C49.5469 47.875 49.0625 47.3906 48.4531 47.3906H47.5625L43.625 7.625H77.7031L72.0938 64.2031ZM77.8125 5.4375H43.5V2.1875H77.8125V5.4375Z" fill="black"/>
</svg>
