<svg width="18" height="18" viewBox="0 0 18 18" fill="none" xmlns="http://www.w3.org/2000/svg">
<path d="M16.875 5.05165H13.3155C13.5709 4.87728 13.7902 4.70403 13.9432 4.54878C14.85 3.6364 14.85 2.1514 13.9432 1.23903C13.0624 0.352527 11.5256 0.351402 10.6436 1.23903C10.1565 1.7284 8.86163 3.72078 9.0405 5.05165H8.9595C9.13725 3.72078 7.8435 1.7284 7.35638 1.23903C6.47438 0.351402 4.93762 0.352527 4.05675 1.23903C3.15 2.1514 3.15 3.6364 4.05562 4.54878C4.20975 4.70403 4.42912 4.87728 4.6845 5.05165H1.125C0.505125 5.05165 0 5.55678 0 6.17665V8.98915C0 9.29965 0.252 9.55165 0.5625 9.55165H1.125V16.3017C1.125 16.9215 1.63013 17.4267 2.25 17.4267H15.75C16.3699 17.4267 16.875 16.9215 16.875 16.3017V9.55165H17.4375C17.748 9.55165 18 9.29965 18 8.98915V6.17665C18 5.55678 17.4949 5.05165 16.875 5.05165ZM4.85437 2.03215C5.08275 1.80265 5.38538 1.67665 5.70712 1.67665C6.02775 1.67665 6.33037 1.80265 6.55875 2.03215C7.317 2.7949 8.07075 4.7434 7.80863 5.01453C7.80863 5.01453 7.76137 5.05165 7.6005 5.05165C6.82312 5.05165 5.33925 4.2439 4.85437 3.75565C4.383 3.2809 4.383 2.5069 4.85437 2.03215ZM8.4375 16.3017H2.25V9.55165H8.4375V16.3017ZM8.4375 8.42665H1.125V6.17665H7.6005H8.4375V8.42665ZM11.4412 2.03215C11.898 1.57428 12.69 1.5754 13.1456 2.03215C13.617 2.5069 13.617 3.2809 13.1456 3.75565C12.6608 4.2439 11.1769 5.05165 10.3995 5.05165C10.2386 5.05165 10.1914 5.01565 10.1902 5.01453C9.92925 4.7434 10.683 2.7949 11.4412 2.03215ZM15.75 16.3017H9.5625V9.55165H15.75V16.3017ZM16.875 8.42665H9.5625V6.17665H10.3995H16.875V8.42665Z" fill="white"/>
</svg>
