<svg width="14" height="14" viewBox="0 0 14 14" fill="none" xmlns="http://www.w3.org/2000/svg">
<path d="M12.6249 4.17947H10.0824C10.2648 4.05492 10.4215 3.93117 10.5308 3.82028C11.1784 3.16858 11.1784 2.10787 10.5308 1.45617C9.90156 0.822955 8.80388 0.822151 8.17388 1.45617C7.82593 1.80572 6.90102 3.22885 7.02879 4.17947H6.97093C7.0979 3.22885 6.17379 1.80572 5.82584 1.45617C5.19584 0.822151 4.09816 0.822955 3.46897 1.45617C2.82129 2.10787 2.82129 3.16858 3.46816 3.82028C3.57825 3.93117 3.73495 4.05492 3.91736 4.17947H1.37486C0.932093 4.17947 0.571289 4.54028 0.571289 4.98304V6.99197C0.571289 7.21376 0.751289 7.39376 0.973075 7.39376H1.37486V12.2152C1.37486 12.658 1.73566 13.0188 2.17843 13.0188H11.8213C12.2641 13.0188 12.6249 12.658 12.6249 12.2152V7.39376H13.0266C13.2484 7.39376 13.4284 7.21376 13.4284 6.99197V4.98304C13.4284 4.54028 13.0676 4.17947 12.6249 4.17947ZM4.0387 2.02269C4.20182 1.85876 4.41799 1.76876 4.64781 1.76876C4.87682 1.76876 5.09299 1.85876 5.25611 2.02269C5.79772 2.56751 6.33611 3.95929 6.14888 4.15296C6.14888 4.15296 6.11513 4.17947 6.00022 4.17947C5.44495 4.17947 4.38504 3.60251 4.0387 3.25376C3.702 2.91465 3.702 2.36179 4.0387 2.02269ZM6.59807 12.2152H2.17843V7.39376H6.59807V12.2152ZM6.59807 6.59019H1.37486V4.98304H6.00022H6.59807V6.59019ZM8.74361 2.02269C9.06986 1.69563 9.63558 1.69644 9.96102 2.02269C10.2977 2.36179 10.2977 2.91465 9.96102 3.25376C9.61468 3.60251 8.55477 4.17947 7.9995 4.17947C7.88459 4.17947 7.85084 4.15376 7.85004 4.15296C7.66361 3.95929 8.202 2.56751 8.74361 2.02269ZM11.8213 12.2152H7.40165V7.39376H11.8213V12.2152ZM12.6249 6.59019H7.40165V4.98304H7.9995H12.6249V6.59019Z" fill="white"/>
</svg>
