<svg width="10" height="14" viewBox="0 0 10 14" fill="none" xmlns="http://www.w3.org/2000/svg">
<path d="M9.1665 14H0C0.180735 10.9785 2.10857 9.78285 4.37471 8.29527C5.94571 7.26183 7.83648 6.08937 7.83648 3.96226C7.83648 2.2337 6.60377 1.09831 4.75472 1.09831C2.34955 1.09831 1.571 2.85005 1.571 4.91691H0.338299V4.73618C0.338299 1.78881 2.02979 0 4.81033 0C7.41476 0 9.10626 1.55247 9.10626 3.93909C9.10626 6.70109 6.64085 8.19331 4.59252 9.5048C3.2625 10.3621 1.69149 11.2936 1.40881 12.9063C1.54783 12.9063 1.66832 12.8878 1.7471 12.8878H9.1665V14Z" fill="white"/>
</svg>
