<svg width="7" height="10" viewBox="0 0 7 10" fill="none" xmlns="http://www.w3.org/2000/svg">
<path d="M6.97621 10H0.428711C0.557807 7.84177 1.93483 6.98775 3.5535 5.92519C4.67565 5.18702 6.0262 4.34955 6.0262 2.83019C6.0262 1.5955 5.14569 0.784508 3.82494 0.784508C2.10696 0.784508 1.55086 2.03575 1.55086 3.51208H0.670353V3.38299C0.670353 1.27772 1.87856 0 3.86466 0C5.72497 0 6.93318 1.1089 6.93318 2.81364C6.93318 4.78649 5.17217 5.85237 3.70908 6.78914C2.75907 7.40152 1.63692 8.06686 1.435 9.2188C1.53431 9.2188 1.62037 9.20556 1.67664 9.20556H6.97621V10Z" fill="white"/>
</svg>
