<svg width="8" height="10" viewBox="0 0 8 10" fill="none" xmlns="http://www.w3.org/2000/svg">
<path d="M3.82255 0C5.5762 0 6.74314 1.00162 6.74314 2.48947C6.74314 3.54619 6.11753 4.35332 5.10294 4.60292C6.38333 4.86872 7.09322 5.71475 7.09322 6.98217C7.09322 8.77796 5.74476 10 3.74151 10C1.72207 10 0.428711 8.79092 0.428711 6.89789V6.67747H1.27798V6.71961C1.27798 8.29173 2.20829 9.23825 3.76745 9.23825C5.18722 9.23825 6.20181 8.34684 6.20181 7.08266C6.20181 5.51053 4.97652 5.03728 3.64103 5.03728C3.4595 5.03728 3.37523 5.03728 3.16777 5.05024V4.31118H3.53082C4.07215 4.31118 4.33795 4.28201 4.69775 4.15883C5.43357 3.88006 5.85173 3.2966 5.85173 2.5316C5.85173 1.4457 5.04459 0.735818 3.78041 0.735818C2.36064 0.735818 1.54054 1.61102 1.48544 3.17018H0.66534C0.694513 1.16694 1.86145 0 3.82255 0Z" fill="white"/>
</svg>
