<svg width="10" height="14" viewBox="0 0 10 14" fill="none" xmlns="http://www.w3.org/2000/svg">
<path d="M4.75138 0C7.20648 0 8.84019 1.40227 8.84019 3.48525C8.84019 4.96467 7.96434 6.09465 6.54392 6.44408C8.33647 6.81621 9.33031 8.00065 9.33031 9.77504C9.33031 12.2891 7.44246 14 4.63793 14C1.8107 14 0 12.3073 0 9.65705V9.34846H1.18898V9.40746C1.18898 11.6084 2.49141 12.9335 4.67423 12.9335C6.66191 12.9335 8.08233 11.6856 8.08233 9.91572C8.08233 7.71475 6.36694 7.05219 4.49724 7.05219C4.24311 7.05219 4.12512 7.05219 3.83468 7.07034V6.03566H4.34295C5.10081 6.03566 5.47293 5.99481 5.97666 5.82237C7.00681 5.43209 7.59222 4.61523 7.59222 3.54425C7.59222 2.02399 6.46224 1.03015 4.69238 1.03015C2.7047 1.03015 1.55656 2.25543 1.47942 4.43825H0.33128C0.372123 1.63371 2.00583 0 4.75138 0Z" fill="white"/>
</svg>
