<svg width="257" height="63" viewBox="0 0 257 63" fill="none" xmlns="http://www.w3.org/2000/svg">
<g clip-path="url(#clip0_70_723)">
<path d="M0.466002 10.9163C1.22325 9.64034 2.50476 9.58234 4.19402 10.6843C43.1052 33.1883 85.5113 44.4403 131.296 44.4403C161.819 44.4403 191.934 38.7563 221.7 27.4463C222.458 27.1563 223.623 26.6923 225.079 26.0543C226.535 25.4163 227.584 24.9523 228.224 24.6623C230.554 23.7343 232.418 24.1983 233.7 26.0543C235.04 27.9103 234.574 29.5923 232.418 31.1583C229.622 33.1883 226.011 35.5083 221.7 38.1183C208.303 46.0063 193.332 52.1543 176.848 56.5043C160.363 60.8543 144.228 63.0003 128.5 63.0003C104.21 63.0003 81.2591 58.7663 59.59 50.2983C37.9209 41.8883 18.5236 29.9403 1.39801 14.6283C0.466002 13.8743 0 13.0623 0 12.3083C0 11.8443 0.174751 11.3803 0.466002 10.9163Z" fill="#E40000"/>
<path d="M209.118 14.8599C209.409 14.2219 209.875 13.6419 210.516 13.0039C214.419 10.3939 218.147 8.59593 221.758 7.66793C227.7 6.10193 233.467 5.28993 239.059 5.11593C240.632 4.94193 242.088 5.05793 243.486 5.34793C250.476 5.98593 254.728 7.14593 256.126 8.82793C256.767 9.75593 257.058 11.1479 257.058 13.0039V14.6279C257.058 20.0799 255.602 26.4599 252.631 33.8259C249.66 41.1919 245.525 47.1079 240.224 51.6319C239.467 52.2699 238.768 52.5599 238.127 52.5599C237.836 52.5599 237.486 52.5019 237.195 52.3279C236.263 51.8639 236.03 50.9939 236.496 49.7759C242.263 36.2619 245.117 26.9239 245.117 21.6459C245.117 19.9639 244.826 18.6879 244.185 17.9339C242.612 16.0779 238.243 15.1499 231.079 15.1499C228.457 15.1499 225.312 15.3239 221.758 15.6139C217.856 16.0779 214.302 16.5419 211.04 17.0059C210.108 17.0059 209.468 16.8319 209.176 16.5419C208.885 16.2519 208.769 15.9039 208.943 15.6139C208.885 15.3819 208.943 15.1499 209.118 14.8599Z" fill="#E40000"/>
</g>
<path d="M73.992 22.7769H70.584V6.76885H78.072C79.752 6.76885 81.064 7.26485 82.008 8.25686C82.968 9.23285 83.448 10.4569 83.448 11.9289C83.448 13.3849 82.968 14.6089 82.008 15.6009C81.048 16.5929 79.736 17.0889 78.072 17.0889H73.992V22.7769ZM77.616 14.0889C78.304 14.0889 78.864 13.8969 79.296 13.5129C79.744 13.1129 79.968 12.5849 79.968 11.9289C79.968 11.2729 79.744 10.7529 79.296 10.3689C78.864 9.96885 78.304 9.76885 77.616 9.76885H73.992V14.0889H77.616ZM88.5366 22.7769H85.4886V11.1849H88.5366V12.7689C88.9686 12.2249 89.5206 11.7769 90.1926 11.4249C90.8646 11.0729 91.5446 10.8969 92.2326 10.8969V13.8729C92.0246 13.8249 91.7446 13.8009 91.3926 13.8009C90.8806 13.8009 90.3366 13.9289 89.7606 14.1849C89.1846 14.4409 88.7766 14.7529 88.5366 15.1209V22.7769ZM99.585 23.0649C97.793 23.0649 96.313 22.5049 95.145 21.3849C93.977 20.2649 93.393 18.7929 93.393 16.9689C93.393 15.2569 93.953 13.8169 95.073 12.6489C96.209 11.4809 97.649 10.8969 99.393 10.8969C101.121 10.8969 102.521 11.4889 103.593 12.6729C104.665 13.8409 105.201 15.3769 105.201 17.2809V17.9529H96.585C96.681 18.7209 97.025 19.3609 97.617 19.8729C98.209 20.3849 98.977 20.6409 99.921 20.6409C100.433 20.6409 100.985 20.5369 101.577 20.3289C102.185 20.1209 102.665 19.8409 103.017 19.4889L104.361 21.4569C103.193 22.5289 101.601 23.0649 99.585 23.0649ZM102.249 15.8889C102.201 15.2329 101.937 14.6409 101.457 14.1129C100.993 13.5849 100.305 13.3209 99.393 13.3209C98.529 13.3209 97.857 13.5849 97.377 14.1129C96.897 14.6249 96.617 15.2169 96.537 15.8889H102.249ZM111.579 23.0649C110.571 23.0649 109.603 22.9049 108.675 22.5849C107.763 22.2649 107.003 21.8249 106.395 21.2649L107.715 19.1289C108.163 19.5449 108.771 19.9129 109.539 20.2329C110.307 20.5529 111.035 20.7129 111.723 20.7129C112.363 20.7129 112.843 20.6009 113.163 20.3769C113.499 20.1529 113.667 19.8489 113.667 19.4649C113.667 19.1769 113.491 18.9449 113.139 18.7689C112.803 18.5769 112.379 18.4409 111.867 18.3609C111.371 18.2809 110.819 18.1609 110.211 18.0009C109.619 17.8409 109.067 17.6489 108.555 17.4249C108.059 17.2009 107.635 16.8489 107.283 16.3689C106.947 15.8729 106.779 15.2649 106.779 14.5449C106.779 13.5209 107.203 12.6569 108.051 11.9529C108.899 11.2489 110.059 10.8969 111.531 10.8969C113.323 10.8969 114.883 11.4249 116.211 12.4809L114.987 14.5689C114.619 14.1849 114.123 13.8649 113.499 13.6089C112.891 13.3529 112.243 13.2249 111.555 13.2249C111.011 13.2249 110.571 13.3369 110.235 13.5609C109.899 13.7689 109.731 14.0409 109.731 14.3769C109.731 14.6329 109.899 14.8489 110.235 15.0249C110.571 15.1849 110.995 15.3049 111.507 15.3849C112.019 15.4649 112.571 15.5929 113.163 15.7689C113.755 15.9289 114.307 16.1289 114.819 16.3689C115.331 16.5929 115.755 16.9609 116.091 17.4729C116.427 17.9849 116.595 18.6089 116.595 19.3449C116.595 20.4329 116.147 21.3289 115.251 22.0329C114.371 22.7209 113.147 23.0649 111.579 23.0649ZM123.016 23.0649C122.008 23.0649 121.04 22.9049 120.112 22.5849C119.2 22.2649 118.44 21.8249 117.832 21.2649L119.152 19.1289C119.6 19.5449 120.208 19.9129 120.976 20.2329C121.744 20.5529 122.472 20.7129 123.16 20.7129C123.8 20.7129 124.28 20.6009 124.6 20.3769C124.936 20.1529 125.104 19.8489 125.104 19.4649C125.104 19.1769 124.928 18.9449 124.576 18.7689C124.24 18.5769 123.816 18.4409 123.304 18.3609C122.808 18.2809 122.256 18.1609 121.648 18.0009C121.056 17.8409 120.504 17.6489 119.992 17.4249C119.496 17.2009 119.072 16.8489 118.72 16.3689C118.384 15.8729 118.216 15.2649 118.216 14.5449C118.216 13.5209 118.64 12.6569 119.488 11.9529C120.336 11.2489 121.496 10.8969 122.968 10.8969C124.76 10.8969 126.32 11.4249 127.648 12.4809L126.424 14.5689C126.056 14.1849 125.56 13.8649 124.936 13.6089C124.328 13.3529 123.68 13.2249 122.992 13.2249C122.448 13.2249 122.008 13.3369 121.672 13.5609C121.336 13.7689 121.168 14.0409 121.168 14.3769C121.168 14.6329 121.336 14.8489 121.672 15.0249C122.008 15.1849 122.432 15.3049 122.944 15.3849C123.456 15.4649 124.008 15.5929 124.6 15.7689C125.192 15.9289 125.744 16.1289 126.256 16.3689C126.768 16.5929 127.192 16.9609 127.528 17.4729C127.864 17.9849 128.032 18.6089 128.032 19.3449C128.032 20.4329 127.584 21.3289 126.688 22.0329C125.808 22.7209 124.584 23.0649 123.016 23.0649ZM150.89 22.7769H147.458V16.0569H139.898V22.7769H136.49V6.76885H139.898V13.0569H147.458V6.76885H150.89V22.7769ZM159.421 23.0649C157.629 23.0649 156.149 22.5049 154.981 21.3849C153.813 20.2649 153.229 18.7929 153.229 16.9689C153.229 15.2569 153.789 13.8169 154.909 12.6489C156.045 11.4809 157.485 10.8969 159.229 10.8969C160.957 10.8969 162.357 11.4889 163.429 12.6729C164.501 13.8409 165.037 15.3769 165.037 17.2809V17.9529H156.421C156.517 18.7209 156.861 19.3609 157.453 19.8729C158.045 20.3849 158.813 20.6409 159.757 20.6409C160.269 20.6409 160.821 20.5369 161.413 20.3289C162.021 20.1209 162.501 19.8409 162.853 19.4889L164.197 21.4569C163.029 22.5289 161.437 23.0649 159.421 23.0649ZM162.085 15.8889C162.037 15.2329 161.773 14.6409 161.293 14.1129C160.829 13.5849 160.141 13.3209 159.229 13.3209C158.365 13.3209 157.693 13.5849 157.213 14.1129C156.733 14.6249 156.453 15.2169 156.373 15.8889H162.085ZM170.287 22.7769H167.239V11.1849H170.287V12.7689C170.719 12.2249 171.271 11.7769 171.943 11.4249C172.615 11.0729 173.295 10.8969 173.983 10.8969V13.8729C173.775 13.8249 173.495 13.8009 173.143 13.8009C172.631 13.8009 172.087 13.9289 171.511 14.1849C170.935 14.4409 170.527 14.7529 170.287 15.1209V22.7769ZM181.335 23.0649C179.543 23.0649 178.063 22.5049 176.895 21.3849C175.727 20.2649 175.143 18.7929 175.143 16.9689C175.143 15.2569 175.703 13.8169 176.823 12.6489C177.959 11.4809 179.399 10.8969 181.143 10.8969C182.871 10.8969 184.271 11.4889 185.343 12.6729C186.415 13.8409 186.951 15.3769 186.951 17.2809V17.9529H178.335C178.431 18.7209 178.775 19.3609 179.367 19.8729C179.959 20.3849 180.727 20.6409 181.671 20.6409C182.183 20.6409 182.735 20.5369 183.327 20.3289C183.935 20.1209 184.415 19.8409 184.767 19.4889L186.111 21.4569C184.943 22.5289 183.351 23.0649 181.335 23.0649ZM183.999 15.8889C183.951 15.2329 183.687 14.6409 183.207 14.1129C182.743 13.5849 182.055 13.3209 181.143 13.3209C180.279 13.3209 179.607 13.5849 179.127 14.1129C178.647 14.6249 178.367 15.2169 178.287 15.8889H183.999Z" fill="#E40000"/>
<defs>
<clipPath id="clip0_70_723">
<rect width="257" height="58" fill="white" transform="translate(0 5)"/>
</clipPath>
</defs>
</svg>
