<svg width="12" height="12" viewBox="0 0 12 12" fill="none" xmlns="http://www.w3.org/2000/svg">
<path d="M11.9828 4.62318C11.9414 4.49589 11.8314 4.40312 11.699 4.3839L7.97896 3.84332L6.31526 0.472388C6.25605 0.352389 6.13383 0.276428 6.00002 0.276428C5.8662 0.276428 5.74399 0.352389 5.68477 0.472388L4.02099 3.84332L0.301004 4.3839C0.168606 4.40312 0.058567 4.49589 0.0172234 4.62315C-0.0241436 4.75044 0.0103562 4.89015 0.106192 4.98355L2.79793 7.60746L2.16259 11.3125C2.13995 11.4444 2.19419 11.5777 2.30244 11.6564C2.36368 11.7009 2.43622 11.7235 2.50911 11.7235C2.56508 11.7235 2.62124 11.7102 2.67266 11.6831L6 9.93379L9.3272 11.6831C9.44568 11.7454 9.58918 11.735 9.69744 11.6563C9.8057 11.5777 9.85996 11.4444 9.83734 11.3125L9.20179 7.60746L11.8938 4.98353C11.9896 4.89015 12.0242 4.75044 11.9828 4.62318Z" fill="black"/>
</svg>
